<?xml version="1.0" encoding="UTF-8"?>
<svg xmlns="http://www.w3.org/2000/svg" xmlns:xlink="http://www.w3.org/1999/xlink" width="0" height="0">
<defs>
<symbol id="arrow-select" viewBox="0 0 20 20" fill="none"><path fill-rule="evenodd" clip-rule="evenodd" d="M10 3C10.2652 3.00006 10.5195 3.10545 10.707 3.293L13.707 6.293C13.8892 6.4816 13.99 6.7342 13.9877 6.9964C13.9854 7.2586 13.8803 7.50941 13.6948 7.69482C13.5094 7.88023 13.2586 7.9854 12.9964 7.98767C12.7342 7.98995 12.4816 7.88916 12.293 7.707L10 5.414L7.70703 7.707C7.51843 7.88916 7.26583 7.98995 7.00363 7.98767C6.74143 7.9854 6.49062 7.88023 6.30521 7.69482C6.1198 7.50941 6.01463 7.2586 6.01236 6.9964C6.01008 6.7342 6.11087 6.4816 6.29303 6.293L9.29303 3.293C9.48052 3.10545 9.73484 3.00006 10 3ZM6.29303 12.293C6.48056 12.1055 6.73487 12.0002 7.00003 12.0002C7.26519 12.0002 7.5195 12.1055 7.70703 12.293L10 14.586L12.293 12.293C12.4816 12.1108 12.7342 12.01 12.9964 12.0123C13.2586 12.0146 13.5094 12.1198 13.6948 12.3052C13.8803 12.4906 13.9854 12.7414 13.9877 13.0036C13.99 13.2658 13.8892 13.5184 13.707 13.707L10.707 16.707C10.5195 16.8945 10.2652 16.9998 10 16.9998C9.73487 16.9998 9.48056 16.8945 9.29303 16.707L6.29303 13.707C6.10556 13.5195 6.00024 13.2652 6.00024 13C6.00024 12.7348 6.10556 12.4805 6.29303 12.293Z" fill="currentColor"/></symbol>
<symbol id="x-icon" viewBox="0 0 20 20" fill="currentColor"><path d="M6.28 5.22a.75.75 0 00-1.06 1.06L8.94 10l-3.72 3.72a.75.75 0 101.06 1.06L10 11.06l3.72 3.72a.75.75 0 101.06-1.06L11.06 10l3.72-3.72a.75.75 0 00-1.06-1.06L10 8.94 6.28 5.22z" /></symbol>
<symbol id="copy" fill="none" viewBox="0 0 24 24" stroke-width="1.5" stroke="currentColor"><path stroke-linecap="round" stroke-linejoin="round" d="M8.25 7.5V6.108c0-1.135.845-2.098 1.976-2.192.373-.03.748-.057 1.123-.08M15.75 18H18a2.25 2.25 0 002.25-2.25V6.108c0-1.135-.845-2.098-1.976-2.192a48.424 48.424 0 00-1.123-.08M15.75 18.75v-1.875a3.375 3.375 0 00-3.375-3.375h-1.5a1.125 1.125 0 01-1.125-1.125v-1.5A3.375 3.375 0 006.375 7.5H5.25m11.9-3.664A2.251 2.251 0 0015 2.25h-1.5a2.251 2.251 0 00-2.15 1.586m5.8 0c.065.21.1.433.1.664v.75h-6V4.5c0-.231.035-.454.1-.664M6.75 7.5H4.875c-.621 0-1.125.504-1.125 1.125v12c0 .621.504 1.125 1.125 1.125h9.75c.621 0 1.125-.504 1.125-1.125V16.5a9 9 0 00-9-9z" /></symbol>
<symbol id="arrow-left-on-rectangle" fill="none" viewBox="0 0 24 24" stroke-width="1.5" stroke="currentColor"><path stroke-linecap="round" stroke-linejoin="round" d="M15.75 9V5.25A2.25 2.25 0 0013.5 3h-6a2.25 2.25 0 00-2.25 2.25v13.5A2.25 2.25 0 007.5 21h6a2.25 2.25 0 002.25-2.25V15M12 9l-3 3m0 0l3 3m-3-3h12.75" /></symbol>
<symbol id="three-dots" viewBox="0 0 24 24" fill="none"><path d="M7.1999 12.0001C7.1999 12.6366 6.94705 13.2471 6.49696 13.6972C6.04687 14.1472 5.43642 14.4001 4.7999 14.4001C4.16338 14.4001 3.55293 14.1472 3.10285 13.6972C2.65276 13.2471 2.3999 12.6366 2.3999 12.0001C2.3999 11.3636 2.65276 10.7531 3.10285 10.303C3.55293 9.85295 4.16338 9.6001 4.7999 9.6001C5.43642 9.6001 6.04687 9.85295 6.49696 10.303C6.94705 10.7531 7.1999 11.3636 7.1999 12.0001ZM14.3999 12.0001C14.3999 12.6366 14.147 13.2471 13.697 13.6972C13.2469 14.1472 12.6364 14.4001 11.9999 14.4001C11.3634 14.4001 10.7529 14.1472 10.3028 13.6972C9.85276 13.2471 9.5999 12.6366 9.5999 12.0001C9.5999 11.3636 9.85276 10.7531 10.3028 10.303C10.7529 9.85295 11.3634 9.6001 11.9999 9.6001C12.6364 9.6001 13.2469 9.85295 13.697 10.303C14.147 10.7531 14.3999 11.3636 14.3999 12.0001ZM19.1999 14.4001C19.8364 14.4001 20.4469 14.1472 20.897 13.6972C21.347 13.2471 21.5999 12.6366 21.5999 12.0001C21.5999 11.3636 21.347 10.7531 20.897 10.303C20.4469 9.85295 19.8364 9.6001 19.1999 9.6001C18.5634 9.6001 17.9529 9.85295 17.5028 10.303C17.0528 10.7531 16.7999 11.3636 16.7999 12.0001C16.7999 12.6366 17.0528 13.2471 17.5028 13.6972C17.9529 14.1472 18.5634 14.4001 19.1999 14.4001Z" fill="currentColor"/></symbol>
<symbol id="arrow-left-sm" viewBox="0 0 20 20" fill="currentColor"><path fill-rule="evenodd" d="M17 10a.75.75 0 01-.75.75H5.612l4.158 3.96a.75.75 0 11-1.04 1.08l-5.5-5.25a.75.75 0 010-1.08l5.5-5.25a.75.75 0 111.04 1.08L5.612 9.25H16.25A.75.75 0 0117 10z" clip-rule="evenodd" /></symbol>
<symbol id="arrow-up-right" fill="none" viewBox="0 0 24 24" stroke-width="3" stroke="currentColor"><path stroke-linecap="round" stroke-linejoin="round" d="M4.5 19.5l15-15m0 0H8.25m11.25 0v11.25" /></symbol>
<symbol id="arrow-right" fill="none" viewBox="0 0 24 24" stroke-width="2" stroke="currentColor"><path stroke-linecap="round" stroke-linejoin="round" d="M13.5 4.5L21 12m0 0l-7.5 7.5M21 12H3" /></symbol>
<symbol id="cog" viewBox="0 0 16 16" fill="currentColor" data-slot="icon"><path fill-rule="evenodd" d="M6.455 1.45A.5.5 0 0 1 6.952 1h2.096a.5.5 0 0 1 .497.45l.186 1.858a4.996 4.996 0 0 1 1.466.848l1.703-.769a.5.5 0 0 1 .639.206l1.047 1.814a.5.5 0 0 1-.14.656l-1.517 1.09a5.026 5.026 0 0 1 0 1.694l1.516 1.09a.5.5 0 0 1 .141.656l-1.047 1.814a.5.5 0 0 1-.639.206l-1.703-.768c-.433.36-.928.649-1.466.847l-.186 1.858a.5.5 0 0 1-.497.45H6.952a.5.5 0 0 1-.497-.45l-.186-1.858a4.993 4.993 0 0 1-1.466-.848l-1.703.769a.5.5 0 0 1-.639-.206l-1.047-1.814a.5.5 0 0 1 .14-.656l1.517-1.09a5.033 5.033 0 0 1 0-1.694l-1.516-1.09a.5.5 0 0 1-.141-.656L2.46 3.593a.5.5 0 0 1 .639-.206l1.703.769c.433-.36.928-.65 1.466-.848l.186-1.858Zm-.177 7.567-.022-.037a2 2 0 0 1 3.466-1.997l.022.037a2 2 0 0 1-3.466 1.997Z" clip-rule="evenodd" /></symbol>
<symbol id="external-link" viewBox="0 0 20 20" fill="currentColor"><path fill-rule="evenodd" d="M4.25 5.5a.75.75 0 0 0-.75.75v8.5c0 .414.336.75.75.75h8.5a.75.75 0 0 0 .75-.75v-4a.75.75 0 0 1 1.5 0v4A2.25 2.25 0 0 1 12.75 17h-8.5A2.25 2.25 0 0 1 2 14.75v-8.5A2.25 2.25 0 0 1 4.25 4h5a.75.75 0 0 1 0 1.5h-5Z" clip-rule="evenodd" /><path fill-rule="evenodd" d="M6.194 12.753a.75.75 0 0 0 1.06.053L16.5 4.44v2.81a.75.75 0 0 0 1.5 0v-4.5a.75.75 0 0 0-.75-.75h-4.5a.75.75 0 0 0 0 1.5h2.553l-9.056 8.194a.75.75 0 0 0-.053 1.06Z" clip-rule="evenodd" /></symbol>
<symbol id="question-mark-circle" viewBox="0 0 20 20" fill="currentColor" ><path fill-rule="evenodd" d="M18 10a8 8 0 11-16 0 8 8 0 0116 0zM8.94 6.94a.75.75 0 11-1.061-1.061 3 3 0 112.871 5.026v.345a.75.75 0 01-1.5 0v-.5c0-.72.57-1.172 1.081-1.287A1.5 1.5 0 108.94 6.94zM10 15a1 1 0 100-2 1 1 0 000 2z" clipRule="evenodd"/></symbol>
</defs>
</svg>