<?xml version="1.0" encoding="UTF-8"?>
<svg xmlns="http://www.w3.org/2000/svg" xmlns:xlink="http://www.w3.org/1999/xlink" width="0" height="0">
<defs>
<symbol id="arrow-select" viewBox="0 0 20 20" fill="none"><path fill-rule="evenodd" clip-rule="evenodd" d="M10 3C10.2652 3.00006 10.5195 3.10545 10.707 3.293L13.707 6.293C13.8892 6.4816 13.99 6.7342 13.9877 6.9964C13.9854 7.2586 13.8803 7.50941 13.6948 7.69482C13.5094 7.88023 13.2586 7.9854 12.9964 7.98767C12.7342 7.98995 12.4816 7.88916 12.293 7.707L10 5.414L7.70703 7.707C7.51843 7.88916 7.26583 7.98995 7.00363 7.98767C6.74143 7.9854 6.49062 7.88023 6.30521 7.69482C6.1198 7.50941 6.01463 7.2586 6.01236 6.9964C6.01008 6.7342 6.11087 6.4816 6.29303 6.293L9.29303 3.293C9.48052 3.10545 9.73484 3.00006 10 3ZM6.29303 12.293C6.48056 12.1055 6.73487 12.0002 7.00003 12.0002C7.26519 12.0002 7.5195 12.1055 7.70703 12.293L10 14.586L12.293 12.293C12.4816 12.1108 12.7342 12.01 12.9964 12.0123C13.2586 12.0146 13.5094 12.1198 13.6948 12.3052C13.8803 12.4906 13.9854 12.7414 13.9877 13.0036C13.99 13.2658 13.8892 13.5184 13.707 13.707L10.707 16.707C10.5195 16.8945 10.2652 16.9998 10 16.9998C9.73487 16.9998 9.48056 16.8945 9.29303 16.707L6.29303 13.707C6.10556 13.5195 6.00024 13.2652 6.00024 13C6.00024 12.7348 6.10556 12.4805 6.29303 12.293Z" fill="currentColor"/></symbol>
<symbol id="x-icon" viewBox="0 0 20 20" fill="currentColor"><path d="M6.28 5.22a.75.75 0 00-1.06 1.06L8.94 10l-3.72 3.72a.75.75 0 101.06 1.06L10 11.06l3.72 3.72a.75.75 0 101.06-1.06L11.06 10l3.72-3.72a.75.75 0 00-1.06-1.06L10 8.94 6.28 5.22z" /></symbol>
<symbol id="copy" fill="none" viewBox="0 0 24 24" stroke-width="1.5" stroke="currentColor"><path stroke-linecap="round" stroke-linejoin="round" d="M8.25 7.5V6.108c0-1.135.845-2.098 1.976-2.192.373-.03.748-.057 1.123-.08M15.75 18H18a2.25 2.25 0 002.25-2.25V6.108c0-1.135-.845-2.098-1.976-2.192a48.424 48.424 0 00-1.123-.08M15.75 18.75v-1.875a3.375 3.375 0 00-3.375-3.375h-1.5a1.125 1.125 0 01-1.125-1.125v-1.5A3.375 3.375 0 006.375 7.5H5.25m11.9-3.664A2.251 2.251 0 0015 2.25h-1.5a2.251 2.251 0 00-2.15 1.586m5.8 0c.065.21.1.433.1.664v.75h-6V4.5c0-.231.035-.454.1-.664M6.75 7.5H4.875c-.621 0-1.125.504-1.125 1.125v12c0 .621.504 1.125 1.125 1.125h9.75c.621 0 1.125-.504 1.125-1.125V16.5a9 9 0 00-9-9z" /></symbol>
<svg id="arrow-left-on-rectangle" fill="none" viewBox="0 0 24 24" stroke-width="1.5" stroke="currentColor"><path stroke-linecap="round" stroke-linejoin="round" d="M15.75 9V5.25A2.25 2.25 0 0013.5 3h-6a2.25 2.25 0 00-2.25 2.25v13.5A2.25 2.25 0 007.5 21h6a2.25 2.25 0 002.25-2.25V15M12 9l-3 3m0 0l3 3m-3-3h12.75" /></svg>
</defs>
</svg>