<?xml version="1.0" encoding="UTF-8"?>
<svg xmlns="http://www.w3.org/2000/svg" xmlns:xlink="http://www.w3.org/1999/xlink" width="0" height="0">
<defs>
<symbol id="stream" viewBox="0 0 32 32" fill="none">
  <g clip-path="url(#clip0_1605_203)">
    <path d="M16.2 1.2666C16.2 4.99993 21.5333 8.06661 29 8.06661H30.8666" stroke="currentColor" stroke-width="1.33333" stroke-miterlimit="10" stroke-linecap="round" stroke-linejoin="round"/>
    <path d="M30.8665 12.0664C17.6665 12.0664 7.5332 7.53307 7.5332 2.06641" stroke="currentColor" stroke-width="1.33333" stroke-miterlimit="10" stroke-linecap="round" stroke-linejoin="round"/>
    <path d="M20.2001 15.6665C7.67237 16.7332 1 20.7332 1 25.3998" stroke="currentColor" stroke-width="1.33333" stroke-miterlimit="10" stroke-linecap="round" stroke-linejoin="round"/>
    <path d="M16.2 30.7331C16.2 30.4665 16.2 30.0665 16.3333 29.7998" stroke="currentColor" stroke-width="1.33333" stroke-miterlimit="10" stroke-linecap="round" stroke-linejoin="round"/>
    <path d="M14.7332 22.333C10.3332 24.0663 7.6665 26.5997 7.6665 29.2663" stroke="currentColor" stroke-width="1.33333" stroke-miterlimit="10" stroke-linecap="round" stroke-linejoin="round"/>
    <path d="M29.5332 15.9336H30.8665" stroke="currentColor" stroke-width="1.33333" stroke-miterlimit="10" stroke-linecap="round" stroke-linejoin="round"/>
    <path d="M1 5.93359C1 10.6003 7.66665 14.6003 20.2 15.667" stroke="currentColor" stroke-width="1.33333" stroke-miterlimit="10" stroke-linecap="round" stroke-linejoin="round"/>
    <path d="M24.4526 29.0053L20.3612 22.8575L24.4526 16.3872L28.6381 22.8575L24.4526 29.0053Z" stroke="currentColor" stroke-width="1.33333" stroke-miterlimit="10" stroke-linecap="round" stroke-linejoin="round"/>
    <path d="M24.4526 24.3997L20.3612 22.8575L24.4526 16.3872L28.6381 22.8575L24.4526 24.3997Z" stroke="currentColor" stroke-width="1.33333" stroke-miterlimit="10" stroke-linecap="round" stroke-linejoin="round"/>
  </g>
  <defs>
    <clipPath id="clip0_1605_203">
      <rect width="32" height="32" fill="white"/>
    </clipPath>
  </defs>
</symbol>
<symbol id="vesting" viewBox="0 0 32 32" fill="none">
  <g clip-path="url(#clip0_1605_217)">
    <path d="M31 29C31 30.0667 30.0667 31 29 31H3C1.93333 31 1 30.0667 1 29V7C1 5.93333 1.93333 5 3 5H29C30.0667 5 31 5.93333 31 7V29Z" stroke="currentColor" stroke-width="1.33333" stroke-miterlimit="10" stroke-linecap="round" stroke-linejoin="round"/>
    <path d="M1 13H31" stroke="currentColor" stroke-width="1.33333" stroke-miterlimit="10" stroke-linecap="round" stroke-linejoin="round"/>
    <path d="M9 7.93333V1" stroke="currentColor" stroke-width="1.33333" stroke-miterlimit="10" stroke-linecap="round" stroke-linejoin="round"/>
    <path d="M23 7.93333V1" stroke="currentColor" stroke-width="1.33333" stroke-miterlimit="10" stroke-linecap="round" stroke-linejoin="round"/>
    <path d="M21.9604 18.0664L23.7202 19.8262L27.2399 16.3066" stroke="currentColor" stroke-width="1.33333" stroke-miterlimit="10" stroke-linecap="round" stroke-linejoin="round"/>
    <path d="M24.4668 24.6143C23.7734 24.6143 23.2188 25.1689 23.2188 25.8623C23.2188 26.5556 23.7734 27.1101 24.4668 27.1101C25.16 27.1101 25.7146 26.5556 25.7146 25.8623C25.7146 25.1689 25.16 24.6143 24.4668 24.6143Z" stroke="currentColor" stroke-width="1.33333" stroke-miterlimit="10" stroke-linecap="round" stroke-linejoin="round"/>
    <path d="M16 24.6143C15.3066 24.6143 14.752 25.1689 14.752 25.8623C14.752 26.5556 15.3066 27.1101 16 27.1101C16.6933 27.1101 17.248 26.5556 17.248 25.8623C17.248 25.1689 16.6933 24.6143 16 24.6143Z" stroke="currentColor" stroke-width="1.33333" stroke-miterlimit="10" stroke-linecap="round" stroke-linejoin="round"/>
    <path d="M16 17.2183C15.3066 17.2183 14.752 17.7729 14.752 18.4663C14.752 19.1596 15.3066 19.7143 16 19.7143C16.6933 19.7143 17.248 19.1596 17.248 18.4663C17.248 17.7729 16.6933 17.2183 16 17.2183Z" stroke="currentColor" stroke-width="1.33333" stroke-miterlimit="10" stroke-linecap="round" stroke-linejoin="round"/>
    <path d="M7.53339 24.6143C6.84005 24.6143 6.2854 25.1689 6.2854 25.8623C6.2854 26.5556 6.84005 27.1101 7.53339 27.1101C8.22671 27.1101 8.78136 26.5556 8.78136 25.8623C8.78136 25.1689 8.22671 24.6143 7.53339 24.6143Z" stroke="currentColor" stroke-width="1.33333" stroke-miterlimit="10" stroke-linecap="round" stroke-linejoin="round"/>
    <path d="M7.53339 17.2183C6.84005 17.2183 6.2854 17.7729 6.2854 18.4663C6.2854 19.1596 6.84005 19.7143 7.53339 19.7143C8.22671 19.7143 8.78136 19.1596 8.78136 18.4663C8.78136 17.7729 8.22671 17.2183 7.53339 17.2183Z" stroke="currentColor" stroke-width="1.33333" stroke-miterlimit="10" stroke-linecap="round" stroke-linejoin="round"/>
  </g>
  <defs>
    <clipPath id="clip0_1605_217">
      <rect width="32" height="32" fill="white"/>
    </clipPath>
  </defs>
</symbol>
<symbol id="one-time" viewBox="0 0 32 32" fill="none">
  <path d="M11.3384 7.33382V6.00049" stroke="currentColor" stroke-width="1.33333" stroke-linecap="round" stroke-linejoin="round"/>
  <path d="M13.333 7.33398H10.6277C10.2123 7.33427 9.80988 7.4791 9.48956 7.74363C9.16924 8.00815 8.95095 8.37589 8.87211 8.78377C8.79328 9.19165 8.85883 9.61424 9.05751 9.97908C9.25619 10.3439 9.57562 10.6282 9.96102 10.7833L12.713 11.8847C13.0984 12.0397 13.4179 12.3241 13.6165 12.6889C13.8152 13.0537 13.8808 13.4763 13.8019 13.8842C13.7231 14.2921 13.5048 14.6598 13.1845 14.9243C12.8642 15.1889 12.4618 15.3337 12.0464 15.334H9.33302" stroke="currentColor" stroke-width="1.33333" stroke-linecap="round" stroke-linejoin="round"/>
  <path d="M11.3384 16.6673V15.334" stroke="currentColor" stroke-width="1.33333" stroke-linecap="round" stroke-linejoin="round"/>
  <path d="M27.3332 30.0003C27.3332 30.354 27.1927 30.6931 26.9426 30.9431C26.6926 31.1932 26.3535 31.3337 25.9998 31.3337H5.99984C5.64622 31.3337 5.30708 31.1932 5.05703 30.9431C4.80698 30.6931 4.6665 30.354 4.6665 30.0003V2.00033C4.6665 1.64671 4.80698 1.30757 5.05703 1.05752C5.30708 0.807473 5.64622 0.666997 5.99984 0.666997H18.7865C18.9623 0.666508 19.1364 0.700772 19.2988 0.767817C19.4613 0.834863 19.6089 0.933367 19.7332 1.05766L26.9518 8.27633C27.2019 8.52632 27.3424 8.8654 27.3425 9.219L27.3332 30.0003Z" stroke="currentColor" stroke-width="1.33333" stroke-linecap="round" stroke-linejoin="round"/>
  <path d="M19.3333 0.787109V7.33378C19.3333 7.6874 19.4737 8.02654 19.7238 8.27658C19.9738 8.52663 20.313 8.66711 20.6666 8.66711H27.2133" stroke="currentColor" stroke-width="1.33333" stroke-linecap="round" stroke-linejoin="round"/>
  <path d="M8.78247 22H23.3385" stroke="currentColor" stroke-width="1.33333" stroke-linecap="round" stroke-linejoin="round"/>
  <path d="M16.6931 18H23.3384" stroke="currentColor" stroke-width="1.33333" stroke-linecap="round" stroke-linejoin="round"/>
  <path d="M19.3384 14.0005H23.3384" stroke="currentColor" stroke-width="1.33333" stroke-linecap="round" stroke-linejoin="round"/>
  <path d="M8.78247 26H23.3385" stroke="currentColor" stroke-width="1.33333" stroke-linecap="round" stroke-linejoin="round"/>
</symbol>
</defs>
</svg>