<?xml version="1.0" encoding="UTF-8"?>
<svg xmlns="http://www.w3.org/2000/svg" xmlns:xlink="http://www.w3.org/1999/xlink" width="0" height="0">
<defs>
<symbol id="arrow-select" viewBox="0 0 20 20" fill="none"><path fill-rule="evenodd" clip-rule="evenodd" d="M10 3C10.2652 3.00006 10.5195 3.10545 10.707 3.293L13.707 6.293C13.8892 6.4816 13.99 6.7342 13.9877 6.9964C13.9854 7.2586 13.8803 7.50941 13.6948 7.69482C13.5094 7.88023 13.2586 7.9854 12.9964 7.98767C12.7342 7.98995 12.4816 7.88916 12.293 7.707L10 5.414L7.70703 7.707C7.51843 7.88916 7.26583 7.98995 7.00363 7.98767C6.74143 7.9854 6.49062 7.88023 6.30521 7.69482C6.1198 7.50941 6.01463 7.2586 6.01236 6.9964C6.01008 6.7342 6.11087 6.4816 6.29303 6.293L9.29303 3.293C9.48052 3.10545 9.73484 3.00006 10 3ZM6.29303 12.293C6.48056 12.1055 6.73487 12.0002 7.00003 12.0002C7.26519 12.0002 7.5195 12.1055 7.70703 12.293L10 14.586L12.293 12.293C12.4816 12.1108 12.7342 12.01 12.9964 12.0123C13.2586 12.0146 13.5094 12.1198 13.6948 12.3052C13.8803 12.4906 13.9854 12.7414 13.9877 13.0036C13.99 13.2658 13.8892 13.5184 13.707 13.707L10.707 16.707C10.5195 16.8945 10.2652 16.9998 10 16.9998C9.73487 16.9998 9.48056 16.8945 9.29303 16.707L6.29303 13.707C6.10556 13.5195 6.00024 13.2652 6.00024 13C6.00024 12.7348 6.10556 12.4805 6.29303 12.293Z" fill="currentColor"/></symbol>
<symbol id="x-icon" viewBox="0 0 20 20" fill="currentColor"><path d="M6.28 5.22a.75.75 0 00-1.06 1.06L8.94 10l-3.72 3.72a.75.75 0 101.06 1.06L10 11.06l3.72 3.72a.75.75 0 101.06-1.06L11.06 10l3.72-3.72a.75.75 0 00-1.06-1.06L10 8.94 6.28 5.22z" /></symbol>
<symbol id="copy" fill="none" viewBox="0 0 24 24" stroke-width="1.5" stroke="currentColor"><path stroke-linecap="round" stroke-linejoin="round" d="M8.25 7.5V6.108c0-1.135.845-2.098 1.976-2.192.373-.03.748-.057 1.123-.08M15.75 18H18a2.25 2.25 0 002.25-2.25V6.108c0-1.135-.845-2.098-1.976-2.192a48.424 48.424 0 00-1.123-.08M15.75 18.75v-1.875a3.375 3.375 0 00-3.375-3.375h-1.5a1.125 1.125 0 01-1.125-1.125v-1.5A3.375 3.375 0 006.375 7.5H5.25m11.9-3.664A2.251 2.251 0 0015 2.25h-1.5a2.251 2.251 0 00-2.15 1.586m5.8 0c.065.21.1.433.1.664v.75h-6V4.5c0-.231.035-.454.1-.664M6.75 7.5H4.875c-.621 0-1.125.504-1.125 1.125v12c0 .621.504 1.125 1.125 1.125h9.75c.621 0 1.125-.504 1.125-1.125V16.5a9 9 0 00-9-9z" /></symbol>
<symbol id="arrow-left-on-rectangle" fill="none" viewBox="0 0 24 24" stroke-width="1.5" stroke="currentColor"><path stroke-linecap="round" stroke-linejoin="round" d="M15.75 9V5.25A2.25 2.25 0 0013.5 3h-6a2.25 2.25 0 00-2.25 2.25v13.5A2.25 2.25 0 007.5 21h6a2.25 2.25 0 002.25-2.25V15M12 9l-3 3m0 0l3 3m-3-3h12.75" /></symbol>
<symbol id="three-dots" viewBox="0 0 24 24" fill="none"><path d="M7.1999 12.0001C7.1999 12.6366 6.94705 13.2471 6.49696 13.6972C6.04687 14.1472 5.43642 14.4001 4.7999 14.4001C4.16338 14.4001 3.55293 14.1472 3.10285 13.6972C2.65276 13.2471 2.3999 12.6366 2.3999 12.0001C2.3999 11.3636 2.65276 10.7531 3.10285 10.303C3.55293 9.85295 4.16338 9.6001 4.7999 9.6001C5.43642 9.6001 6.04687 9.85295 6.49696 10.303C6.94705 10.7531 7.1999 11.3636 7.1999 12.0001ZM14.3999 12.0001C14.3999 12.6366 14.147 13.2471 13.697 13.6972C13.2469 14.1472 12.6364 14.4001 11.9999 14.4001C11.3634 14.4001 10.7529 14.1472 10.3028 13.6972C9.85276 13.2471 9.5999 12.6366 9.5999 12.0001C9.5999 11.3636 9.85276 10.7531 10.3028 10.303C10.7529 9.85295 11.3634 9.6001 11.9999 9.6001C12.6364 9.6001 13.2469 9.85295 13.697 10.303C14.147 10.7531 14.3999 11.3636 14.3999 12.0001ZM19.1999 14.4001C19.8364 14.4001 20.4469 14.1472 20.897 13.6972C21.347 13.2471 21.5999 12.6366 21.5999 12.0001C21.5999 11.3636 21.347 10.7531 20.897 10.303C20.4469 9.85295 19.8364 9.6001 19.1999 9.6001C18.5634 9.6001 17.9529 9.85295 17.5028 10.303C17.0528 10.7531 16.7999 11.3636 16.7999 12.0001C16.7999 12.6366 17.0528 13.2471 17.5028 13.6972C17.9529 14.1472 18.5634 14.4001 19.1999 14.4001Z" fill="currentColor"/></symbol>
<symbol id="arrow-left-sm" viewBox="0 0 20 20" fill="currentColor"><path fill-rule="evenodd" d="M17 10a.75.75 0 01-.75.75H5.612l4.158 3.96a.75.75 0 11-1.04 1.08l-5.5-5.25a.75.75 0 010-1.08l5.5-5.25a.75.75 0 111.04 1.08L5.612 9.25H16.25A.75.75 0 0117 10z" clip-rule="evenodd" /></symbol>
<symbol id="arrow-up-right" fill="none" viewBox="0 0 24 24" stroke-width="3" stroke="currentColor"><path stroke-linecap="round" stroke-linejoin="round" d="M4.5 19.5l15-15m0 0H8.25m11.25 0v11.25" /></symbol>
<symbol id="arrow-right" fill="none" viewBox="0 0 24 24" stroke-width="2" stroke="currentColor"><path stroke-linecap="round" stroke-linejoin="round" d="M13.5 4.5L21 12m0 0l-7.5 7.5M21 12H3" /></symbol>
<symbol id="cog" viewBox="0 0 16 16" fill="currentColor" data-slot="icon"><path fill-rule="evenodd" d="M6.455 1.45A.5.5 0 0 1 6.952 1h2.096a.5.5 0 0 1 .497.45l.186 1.858a4.996 4.996 0 0 1 1.466.848l1.703-.769a.5.5 0 0 1 .639.206l1.047 1.814a.5.5 0 0 1-.14.656l-1.517 1.09a5.026 5.026 0 0 1 0 1.694l1.516 1.09a.5.5 0 0 1 .141.656l-1.047 1.814a.5.5 0 0 1-.639.206l-1.703-.768c-.433.36-.928.649-1.466.847l-.186 1.858a.5.5 0 0 1-.497.45H6.952a.5.5 0 0 1-.497-.45l-.186-1.858a4.993 4.993 0 0 1-1.466-.848l-1.703.769a.5.5 0 0 1-.639-.206l-1.047-1.814a.5.5 0 0 1 .14-.656l1.517-1.09a5.033 5.033 0 0 1 0-1.694l-1.516-1.09a.5.5 0 0 1-.141-.656L2.46 3.593a.5.5 0 0 1 .639-.206l1.703.769c.433-.36.928-.65 1.466-.848l.186-1.858Zm-.177 7.567-.022-.037a2 2 0 0 1 3.466-1.997l.022.037a2 2 0 0 1-3.466 1.997Z" clip-rule="evenodd" /></symbol>
<symbol id="external-link" viewBox="0 0 20 20" fill="currentColor"><path fill-rule="evenodd" d="M4.25 5.5a.75.75 0 0 0-.75.75v8.5c0 .414.336.75.75.75h8.5a.75.75 0 0 0 .75-.75v-4a.75.75 0 0 1 1.5 0v4A2.25 2.25 0 0 1 12.75 17h-8.5A2.25 2.25 0 0 1 2 14.75v-8.5A2.25 2.25 0 0 1 4.25 4h5a.75.75 0 0 1 0 1.5h-5Z" clip-rule="evenodd" /><path fill-rule="evenodd" d="M6.194 12.753a.75.75 0 0 0 1.06.053L16.5 4.44v2.81a.75.75 0 0 0 1.5 0v-4.5a.75.75 0 0 0-.75-.75h-4.5a.75.75 0 0 0 0 1.5h2.553l-9.056 8.194a.75.75 0 0 0-.053 1.06Z" clip-rule="evenodd" /></symbol>
<symbol id="question-mark-circle" viewBox="0 0 20 20" fill="currentColor"><path fill-rule="evenodd" d="M18 10a8 8 0 11-16 0 8 8 0 0116 0zM8.94 6.94a.75.75 0 11-1.061-1.061 3 3 0 112.871 5.026v.345a.75.75 0 01-1.5 0v-.5c0-.72.57-1.172 1.081-1.287A1.5 1.5 0 108.94 6.94zM10 15a1 1 0 100-2 1 1 0 000 2z" clipRule="evenodd"/></symbol>
<symbol id="exclamation-circle" viewBox="0 0 20 20" fill="currentColor"><path fill-rule="evenodd" d="M18 10a8 8 0 1 1-16 0 8 8 0 0 1 16 0Zm-8-5a.75.75 0 0 1 .75.75v4.5a.75.75 0 0 1-1.5 0v-4.5A.75.75 0 0 1 10 5Zm0 10a1 1 0 1 0 0-2 1 1 0 0 0 0 2Z" clip-rule="evenodd" /></symbol>
<svg id="twitter"  width="17" height="16" viewBox="0 0 17 16" fill="none"><g clip-path="url(#clip0_85_183)"><path d="M16.0469 4.29304C16.0943 4.25361 16.1299 4.20179 16.1496 4.14335C16.1693 4.08491 16.1725 4.02213 16.1586 3.96202C16.1448 3.9019 16.1146 3.8468 16.0713 3.80284C16.028 3.75888 15.9734 3.7278 15.9135 3.71304L15.3869 3.58638C15.3383 3.57418 15.2933 3.55101 15.2551 3.51865C15.217 3.48628 15.1868 3.44559 15.1669 3.39971C15.1455 3.35494 15.1345 3.30597 15.1345 3.25638C15.1345 3.20678 15.1455 3.15782 15.1669 3.11304L15.4669 2.51971C15.4954 2.46162 15.5064 2.39648 15.4985 2.33225C15.4906 2.26802 15.4642 2.20747 15.4225 2.15799C15.3808 2.10851 15.3256 2.07224 15.2636 2.0536C15.2017 2.03497 15.1356 2.03477 15.0735 2.05304L13.7402 2.42638C13.6911 2.43991 13.6394 2.44153 13.5896 2.4311C13.5397 2.42066 13.4931 2.39847 13.4535 2.36638C12.9583 1.99495 12.3694 1.76877 11.7529 1.71318C11.1363 1.65758 10.5165 1.77477 9.96281 2.05162C9.40912 2.32846 8.94347 2.75402 8.61802 3.2806C8.29257 3.80719 8.12019 4.414 8.12019 5.03304V5.27304C8.12049 5.31399 8.1057 5.35361 8.07865 5.38435C8.0516 5.41509 8.01417 5.4348 7.97352 5.43971C6.10019 5.65971 4.30686 4.70638 2.37352 2.47971C2.33275 2.43158 2.27916 2.39601 2.21897 2.37713C2.15879 2.35825 2.09448 2.35683 2.03352 2.37304C1.97545 2.39745 1.92568 2.43812 1.8902 2.49017C1.85471 2.54221 1.83503 2.6034 1.83352 2.66638C1.56335 3.76304 1.67141 4.9188 2.14019 5.94638C2.15478 5.97293 2.16243 6.00274 2.16243 6.03304C2.16243 6.06334 2.15478 6.09315 2.14019 6.11971C2.12226 6.14621 2.0968 6.16673 2.06709 6.17862C2.03738 6.1905 2.00479 6.1932 1.97352 6.18638L1.22019 6.03971C1.16689 6.03248 1.11264 6.03775 1.06173 6.05511C1.01082 6.07246 0.964641 6.10143 0.926857 6.13971C0.890502 6.17843 0.863726 6.22514 0.848675 6.27608C0.833625 6.32702 0.830719 6.38078 0.84019 6.43304C0.897749 6.94467 1.06964 7.43681 1.34314 7.87302C1.61663 8.30923 1.98473 8.67835 2.42019 8.95304C2.44628 8.96884 2.46753 8.99148 2.48164 9.01852C2.49574 9.04556 2.50216 9.07594 2.50019 9.10638C2.49986 9.13796 2.49019 9.16875 2.47239 9.19485C2.4546 9.22095 2.42948 9.2412 2.40019 9.25304L2.04019 9.39304C1.95493 9.43039 1.88785 9.49986 1.85352 9.58638C1.83555 9.62853 1.82629 9.67388 1.82629 9.71971C1.82629 9.76553 1.83555 9.81089 1.85352 9.85304C2.04892 10.2806 2.34509 10.6544 2.71666 10.9423C3.08822 11.2303 3.52408 11.4238 3.98686 11.5064C4.01976 11.5162 4.04917 11.5352 4.07161 11.5612C4.09406 11.5872 4.1086 11.6191 4.11352 11.653C4.11682 11.6887 4.10897 11.7246 4.09106 11.7556C4.07315 11.7866 4.04606 11.8114 4.01352 11.8264C3.11046 12.1962 2.14267 12.382 1.16686 12.373C1.07845 12.3554 0.986643 12.3735 0.911628 12.4235C0.836614 12.4735 0.784538 12.5513 0.766857 12.6397C0.749175 12.7281 0.767337 12.8199 0.817347 12.8949C0.867357 12.97 0.945118 13.022 1.03352 13.0397C2.73095 13.8479 4.58062 14.2864 6.46019 14.3264C8.11305 14.3508 9.73638 13.887 11.1269 12.993C12.2712 12.2306 13.2087 11.1964 13.8555 9.983C14.5024 8.76958 14.8384 7.41476 14.8335 6.03971V5.45971C14.8335 5.41122 14.8442 5.36333 14.865 5.31952C14.8857 5.2757 14.916 5.23705 14.9535 5.20638L16.0469 4.29304Z" fill="currentColor"/></g><defs><clipPath id="clip0_85_183"><rect width="16" height="16" fill="currentColor" transform="translate(0.5)" /></clipPath></defs></symbol>
</defs>
</svg>