<svg width="67" height="87" viewBox="0 0 67 87" fill="none" xmlns="http://www.w3.org/2000/svg">
<path fill-rule="evenodd" clip-rule="evenodd" d="M4.73047 78.3725C4.73047 80.7625 6.68047 82.7125 9.07047 82.7125C19.0305 82.7025 27.3705 75.6525 29.3705 66.2725H41.5205C52.7705 66.2725 62.2305 57.3225 62.6405 46.3125C62.8505 40.6325 60.7905 35.2425 56.8505 31.1625C52.9105 27.0825 47.6105 24.8225 41.9305 24.8225L23.6805 24.8025V8.83246C23.6805 6.90246 22.4205 5.20246 20.5605 4.66246C18.7105 4.13246 16.7205 4.88246 15.6905 6.51246L7.14047 20.0025C5.13047 22.2725 4.56047 25.4625 5.70047 28.3225C6.92047 31.3525 9.80047 33.3425 13.0605 33.3825L19.3505 33.4825L41.9405 33.5025C45.2405 33.5025 48.3105 34.8025 50.6105 37.1825C52.8905 39.5625 54.0905 42.6925 53.9705 46.0025C53.7305 52.3925 48.1505 57.5925 41.5205 57.5925L25.4905 57.6125C23.0805 57.6125 21.1505 59.5625 21.1505 61.9525C21.1505 67.0825 17.9305 71.4725 13.4105 73.2225V53.7725C13.4105 51.6425 15.1505 49.9025 17.2805 49.9025H27.9305C29.2805 51.8125 31.5005 53.0625 34.0105 53.0625C38.1105 53.0625 41.4505 49.7225 41.4505 45.6225C41.4505 41.5225 38.1105 38.1825 34.0105 38.1825C31.5505 38.1825 29.3705 39.3825 28.0105 41.2225H17.2805C10.3605 41.2225 4.73047 46.8525 4.73047 53.7725V78.3725Z" fill="url(#paint3_linear_605_3795)"/>
<defs>
<linearGradient id="paint0_linear_605_3795" x1="273.17" y1="47.0625" x2="179.78" y2="47.0625" gradientUnits="userSpaceOnUse">
<stop stop-color="#23BD8F"/>
<stop offset="1" stop-color="#1BDBAD"/>
</linearGradient>
<linearGradient id="paint1_linear_605_3795" x1="304.661" y1="52.8326" x2="218.721" y2="52.8326" gradientUnits="userSpaceOnUse">
<stop stop-color="#23BD8F"/>
<stop offset="1" stop-color="#1BDBAD"/>
</linearGradient>
<linearGradient id="paint2_linear_605_3795" x1="339.82" y1="58.6826" x2="243.67" y2="58.6826" gradientUnits="userSpaceOnUse">
<stop stop-color="#23BD8F"/>
<stop offset="1" stop-color="#1BDBAD"/>
</linearGradient>
<linearGradient id="paint3_linear_605_3795" x1="17.7205" y1="85.2025" x2="36.1505" y2="29.5625" gradientUnits="userSpaceOnUse">
<stop stop-color="#23BD8F"/>
<stop offset="1" stop-color="#1BDBAD"/>
</linearGradient>
</defs>
</svg>
